<?xml version="1.0" standalone="no"?>
<!DOCTYPE svg PUBLIC "-//W3C//DTD SVG 20010904//EN"
 "http://www.w3.org/TR/2001/REC-SVG-20010904/DTD/svg10.dtd">
<svg version="1.0" xmlns="http://www.w3.org/2000/svg"
 width="128.000000pt" height="128.000000pt" viewBox="0 0 128.000000 128.000000"
 preserveAspectRatio="xMidYMid meet">
<metadata>
Created by potrace 1.11, written by Peter Selinger 2001-2013
</metadata>
<g transform="translate(0.000000,128.000000) scale(0.100000,-0.100000)"
fill="#000000" stroke="none">
<path d="M623 1168 c-14 -23 -12 -177 3 -189 28 -23 41 6 41 93 0 77 -8 108
-28 108 -4 0 -11 -6 -16 -12z"/>
<path d="M260 1015 c-14 -17 -11 -22 69 -101 46 -46 81 -57 81 -26 0 16 -117
142 -132 142 -3 0 -11 -7 -18 -15z"/>
<path d="M932 968 c-60 -59 -75 -93 -41 -93 16 0 69 45 118 98 20 22 22 29 11
42 -7 8 -15 15 -19 15 -3 0 -34 -28 -69 -62z"/>
<path d="M559 881 c-108 -38 -173 -128 -172 -241 1 -80 21 -128 75 -181 55
-53 99 -71 178 -72 72 0 129 22 179 71 79 76 99 204 46 301 -61 111 -190 163
-306 122z m196 -76 c62 -47 88 -98 87 -170 -1 -55 -14 -85 -53 -130 -49 -56
-122 -80 -191 -62 -94 23 -153 91 -161 185 -14 162 190 276 318 177z"/>
<path d="M112 654 c-14 -10 -15 -15 -4 -26 19 -19 178 -19 194 -1 8 10 8 17
-1 26 -16 16 -168 17 -189 1z"/>
<path d="M979 653 c-23 -27 7 -40 91 -40 87 -1 126 14 102 39 -18 18 -178 20
-193 1z"/>
<path d="M340 377 c-71 -67 -91 -93 -84 -110 10 -28 27 -20 93 47 43 44 62 69
58 80 -10 24 -28 19 -67 -17z"/>
<path d="M877 403 c-15 -14 -4 -32 55 -91 66 -65 82 -73 92 -45 7 16 -18 47
-89 114 -30 29 -46 35 -58 22z"/>
<path d="M622 298 c-14 -19 -10 -174 6 -190 24 -24 37 8 39 95 1 75 -7 107
-27 107 -4 0 -12 -6 -18 -12z"/>
</g>
</svg>
